<svg xmlns="http://www.w3.org/2000/svg" xmlns:xlink="http://www.w3.org/1999/xlink" version="1.1" id="Layer_1" x="0px" y="0px" viewBox="5.0 -10.0 100.0 135.0" enable-background="new 0 0 100 100" xml:space="preserve" height="100px" width="100px">
<g>
	<path d="M41.427,43.501c-0.573,0.875-1.133,1.759-1.595,2.714c0.865-0.82,1.627-1.716,2.36-2.633l0.232-0.29l-0.336-0.221   c-0.579-0.381-1.176-0.733-1.775-1.083c0.949-0.828,1.873-1.687,2.707-2.657c-1.274,0.706-2.439,1.545-3.572,2.423l-0.42,0.325   l0.465,0.29C40.127,42.766,40.773,43.14,41.427,43.501z"/>
	<path d="M84.823,32.793c-0.653-5.11-2.57-9.368-5.243-13.711c-1.068-1.232-2.279-2.278-3.654-3.202   c-2.85-1.917-0.616-1.15,1.007-2.127c-3.272-1.953-6.644-3.536-10.38-4.387c-0.411-0.094-5.654-0.572-5.646-0.978   c0.008-0.406,1.186-0.412,1.5-1.007c-4.291-1.724-9.651-2.504-14.227-1.738c-1.851,0.31-3.362,1.092-5.101,1.691   c-1.223,0.422,0.027-1.913-0.209-2.146c-1.136-1.136-4.418,3.25-5.246,3.27c-0.967,0.022-6.175-3.955-6.95-2.692   c-0.249,0.412,1.75,1.893,1.989,2.165c1.899,2.166-0.53,1.864-2.35,2.307c-3.59,0.875-7.414,2.521-9.269,5.921   c-0.802,1.467,0.337,1.198,1.483,1.62c1.069,0.394-2.055,3.087-2.406,3.518c-0.661,0.813-6.133,8.126-4.947,9.038   c0.779,0.601,2.782-2.116,3.858-0.741c1.533,1.953-2.212,4.705-2.986,5.977c-0.283,0.465,1.775,1.333,1.996,1.353   c1.039,0.092,0.18,1.672,0.05,2.069c-0.756,2.308-0.521,5.096-0.334,7.494c0.429-0.779,0.977-1.461,1.646-2.047   c1.017,2.911,1.966,5.956,3.202,8.84c-0.663,0.43-1.06,1.082-1.112,2.006c-0.052,0.904,0.211,1.775,0.342,2.659   c0.734,1.926,1.135,3.945,1.633,5.938c0.183,0.736,0.383,1.471,1.136,1.867c0.37,0.195,0.249,0.586,0.267,0.901   c0.136,2.419,0.283,4.837,0.732,7.223c0.42,2.237,0.969,4.42,2.579,6.144c1.877,1.675,3.726,3.384,5.636,5.019   c3.983,3.411,8.01,6.774,12.831,8.942C48.017,94.596,49.403,95,50.831,95c0.873,0,1.762-0.151,2.672-0.496   c1.912-0.725,3.693-1.679,5.399-2.774c4.966-3.187,9.308-7.151,13.463-11.333c1.065-1.072,1.85-2.298,2.08-3.899   c0.315-2.187,0.407-4.391,0.672-6.579c0.192-1.547-0.213-3.057,0.832-4.623c2.18-3.268,2.845-7.054,2.455-10.995   c-0.079-0.798-0.687-1.074-1.368-1.155c-0.045-0.005-0.09-0.008-0.135-0.008c-0.255,0-0.519,0.075-0.78,0.114   c0.436-0.952,0.897-1.877,1.637-2.563c1.204-2.983,3.985-7.243,3.399-10.572c0.445,0.373,1.053,2.775,1.397,2.791   c1.707,0.094,1.218-9.295,0.932-10.405c0.764,0.141,0.745,1.104,1.477,1.241C85.029,33.41,84.981,33.093,84.823,32.793z    M25.233,38.466c0.55,2.902,0.878,6.14,2.666,8.6c0.688-0.791-0.193-2.935-0.04-3.948c0.259-1.716,0.273-3.536,1.278-5.036   c0.955-1.426,6.006,5.013,6.851,4.025c0.027-0.031-3.026-5.499-3.214-6.338c-0.771-3.446,0.052-6.336,1.811-9.245   c2.052,3.824,6.44,6.001,10.018,8.108c2.938,1.73,11.312,5.449,9.862,10.036c3.542-2.521,4.418-7.969,3.975-11.965   c3.123,1.955,7.324,5.178,7.351,9.285c0.026,3.894,7.425-1.739,8.14-3.229c0,5.53-0.544,11.304-0.275,16.846l-1.463,2.006   c-0.863-3.993-4.415-6.997-8.663-6.997c-4.352,0-7.963,3.156-8.711,7.295c-1.096-1.358-3.401-2.225-4.819-2.225   c-1.419,0-3.723,0.866-4.82,2.225c-0.748-4.14-4.359-7.296-8.711-7.296c-4.314,0-7.91,3.1-8.7,7.188l-3.244-3.842   c-0.017-0.379-0.028-0.759-0.045-1.138c0.102,0.197,0.061,0.098-0.001-0.025c-0.065-1.417-0.13-2.833-0.168-4.252   C24.239,45.909,23.214,40.627,25.233,38.466z M71.622,59.485c0,4.462-3.63,8.091-8.092,8.091s-8.091-3.63-8.091-8.091   s3.63-8.091,8.091-8.091S71.622,55.023,71.622,59.485z M44.561,59.485c0,4.462-3.63,8.091-8.092,8.091s-8.091-3.63-8.091-8.091   s3.63-8.091,8.091-8.091S44.561,55.023,44.561,59.485z M76.177,54.032c0.116-0.015,0.233-0.037,0.349-0.06   c0.144-0.028,0.279-0.054,0.377-0.054c0.014,0,0.028,0.001,0.042,0.002c0.648,0.077,0.669,0.289,0.686,0.459   c0.4,4.043-0.383,7.571-2.328,10.486c-0.868,1.302-0.883,2.576-0.896,3.7c-0.005,0.438-0.01,0.851-0.061,1.261   c-0.117,0.97-0.202,1.953-0.284,2.903c-0.104,1.204-0.211,2.45-0.386,3.659c-0.183,1.266-0.774,2.366-1.862,3.461   c-3.41,3.432-8.007,7.809-13.331,11.227c-1.815,1.165-3.534,2.048-5.255,2.701c-0.791,0.3-1.574,0.445-2.396,0.445   c-1.177,0-2.441-0.311-3.862-0.95c-4.56-2.051-8.424-5.209-12.644-8.823c-1.303-1.116-2.603-2.289-3.861-3.424   c-0.577-0.521-1.155-1.042-1.735-1.56c-1.485-1.607-1.98-3.712-2.359-5.732c-0.422-2.247-0.57-4.461-0.719-7.122   c-0.003-0.045,0.001-0.093,0.002-0.142c0.012-0.307,0.039-1.025-0.685-1.405c-0.431-0.227-0.568-0.667-0.742-1.366   c-0.111-0.443-0.216-0.888-0.322-1.332c-0.363-1.523-0.737-3.098-1.309-4.616c-0.038-0.243-0.085-0.486-0.132-0.728   c-0.114-0.59-0.221-1.147-0.191-1.688c0.033-0.581,0.25-0.994,0.644-1.3c0.519,1.144,1.085,2.262,1.742,3.32   c-0.02-0.709-0.055-1.418-0.084-2.126l3.085,3.654c-0.014,0.204-0.061,0.398-0.061,0.605c0,4.891,3.979,8.87,8.87,8.87   c4.891,0,8.87-3.979,8.87-8.87c0-1.558,2.907-3.021,4.66-3.021c1.752,0,4.659,1.463,4.659,3.021c0,4.891,3.98,8.87,8.87,8.87   c4.891,0,8.87-3.979,8.87-8.87c0-0.251-0.054-0.488-0.074-0.734l1.375-1.886c0.006,0.079,0.002,0.161,0.009,0.24   c0.948-0.766,1.488-1.866,1.994-2.986l0.02-0.028L76.177,54.032z"/>
	<path d="M84.823,32.793C84.453,29.896,84.862,33.1,84.823,32.793L84.823,32.793z"/>
</g>
<text x="0.0" y="117.5" font-size="5.0" font-weight="bold" font-family="Helvetica Neue, Helvetica, Arial-Unicode, Arial, Sans-serif" fill="#000000">Created by Philip Glenn</text><text x="0.0" y="122.5" font-size="5.0" font-weight="bold" font-family="Helvetica Neue, Helvetica, Arial-Unicode, Arial, Sans-serif" fill="#000000">from the Noun Project</text></svg>